<?xml version="1.0" encoding="UTF-8" standalone="no"?>
<!-- Created with Inkscape (http://www.inkscape.org/) -->

<svg
   width="186.45644mm"
   height="29.882706mm"
   viewBox="0 0 186.45643 29.882706"
   version="1.1"
   id="svg5"
   inkscape:version="1.2.1 (9c6d41e410, 2022-07-14)"
   sodipodi:docname="logo.svg"
   xmlns:inkscape="http://www.inkscape.org/namespaces/inkscape"
   xmlns:sodipodi="http://sodipodi.sourceforge.net/DTD/sodipodi-0.dtd"
   xmlns="http://www.w3.org/2000/svg"
   xmlns:svg="http://www.w3.org/2000/svg">
  <sodipodi:namedview
     id="namedview7"
     pagecolor="#505050"
     bordercolor="#eeeeee"
     borderopacity="1"
     inkscape:showpageshadow="0"
     inkscape:pageopacity="0"
     inkscape:pagecheckerboard="0"
     inkscape:deskcolor="#505050"
     inkscape:document-units="mm"
     showgrid="false"
     inkscape:zoom="2.8284272"
     inkscape:cx="378.65567"
     inkscape:cy="71.06423"
     inkscape:window-width="3754"
     inkscape:window-height="2127"
     inkscape:window-x="1166"
     inkscape:window-y="0"
     inkscape:window-maximized="1"
     inkscape:current-layer="layer1"
     showguides="false" />
  <defs
     id="defs2">
    <linearGradient
       id="linearGradient1032">
      <stop
         style="stop-color:#cc0000;stop-opacity:1;"
         offset="0"
         id="stop1036" />
      <stop
         style="stop-color:#cc0000;stop-opacity:0;"
         offset="1"
         id="stop1038" />
    </linearGradient>
    <linearGradient
       id="linearGradient1032-1">
      <stop
         style="stop-color:#4d0b0b;stop-opacity:1;"
         offset="0"
         id="stop1028" />
      <stop
         style="stop-color:#cc0000;stop-opacity:1;"
         offset="0.11232118"
         id="stop1030" />
      <stop
         style="stop-color:#cc0000;stop-opacity:1;"
         offset="0.89785337"
         id="stop1122" />
      <stop
         style="stop-color:#4c0b0b;stop-opacity:1;"
         offset="1"
         id="stop1041" />
    </linearGradient>
    <filter
       style="color-interpolation-filters:sRGB"
       inkscape:label="Drop Shadow"
       id="filter3735"
       x="-0.032139049"
       y="-0.032139049"
       width="1.0669564"
       height="1.0682955">
      <feFlood
         flood-opacity="0.54902"
         flood-color="rgb(0,0,0)"
         result="flood"
         id="feFlood3725" />
      <feComposite
         in="flood"
         in2="SourceGraphic"
         operator="in"
         result="composite1"
         id="feComposite3727" />
      <feGaussianBlur
         in="composite1"
         stdDeviation="1"
         result="blur"
         id="feGaussianBlur3729" />
      <feOffset
         dx="0.2"
         dy="0.3"
         result="offset"
         id="feOffset3731" />
      <feComposite
         in="SourceGraphic"
         in2="offset"
         operator="over"
         result="composite2"
         id="feComposite3733" />
    </filter>
    <filter
       style="color-interpolation-filters:sRGB"
       inkscape:label="Drop Shadow"
       id="filter3747"
       x="-0.015761159"
       y="-0.10270455"
       width="1.0328357"
       height="1.2182472">
      <feFlood
         flood-opacity="0.54902"
         flood-color="rgb(0,0,0)"
         result="flood"
         id="feFlood3737" />
      <feComposite
         in="flood"
         in2="SourceGraphic"
         operator="in"
         result="composite1"
         id="feComposite3739" />
      <feGaussianBlur
         in="composite1"
         stdDeviation="1"
         result="blur"
         id="feGaussianBlur3741" />
      <feOffset
         dx="0.2"
         dy="0.3"
         result="offset"
         id="feOffset3743" />
      <feComposite
         in="SourceGraphic"
         in2="offset"
         operator="over"
         result="composite2"
         id="feComposite3745" />
    </filter>
  </defs>
  <g
     inkscape:label="L1"
     inkscape:groupmode="layer"
     id="layer1"
     transform="translate(-14.404994,-126.83343)">
    <g
       id="g934">
      <circle
         style="display:inline;fill:#ffffff;fill-opacity:1;stroke-width:1.30808;filter:url(#filter3735)"
         id="path1766-9"
         cx="82.249115"
         cy="240.27315"
         r="37.337757"
         transform="matrix(0.32697901,0,0,0.32697901,0.50467243,61.262568)" />
      <circle
         style="fill:#3a3a3a;fill-opacity:1;stroke-width:0.40632"
         id="path1766"
         cx="27.398407"
         cy="139.82684"
         r="11.598027" />
      <path
         id="rect1304"
         style="fill:#ffffff;fill-opacity:1;stroke-width:0.495873"
         d="m 23.094714,131.98367 c -0.01603,0.002 -0.03159,0.009 -0.04392,0.0212 l -2.970361,2.97191 a 1.3654379,1.7456499 3.0525799 0 1 0.15658,0.77825 1.3654379,1.7456499 3.0525799 0 1 -0.405144,1.25574 l 0.882634,0.88212 c 0.02822,0.0282 0.0736,0.0282 0.101803,0 l 1.578714,-1.57924 4.230233,4.22765 -5.007963,5.76296 c -0.02618,0.0301 -0.02286,0.0751 0.0072,0.10128 l 0.638204,0.55449 c 0.03012,0.0262 0.07512,0.0234 0.101286,-0.007 l 4.963004,-5.71025 5.706629,5.70353 c 0.02822,0.0282 0.0736,0.0282 0.101803,0 l 0.597895,-0.59841 c 0.02822,-0.0282 0.02822,-0.0736 0,-0.10181 l -5.75572,-5.7521 3.962549,-4.55941 0.388606,0.33796 c 0.03011,0.0262 1.846533,0.7774 2.807063,0.87385 -0.112556,-1.06415 -1.083514,-2.79639 -1.113628,-2.82256 l -0.388605,-0.33797 0.06046,-0.0692 c 0.02619,-0.0301 0.02289,-0.0756 -0.0072,-0.10181 l -0.638719,-0.55449 c -0.03011,-0.0262 -0.07512,-0.0234 -0.101286,0.007 l -0.06046,0.0692 -1.531173,-1.33066 c -0.03011,-0.0262 -0.07564,-0.023 -0.101802,0.007 l -1.599386,1.8402 c -0.02618,0.0301 -0.02289,0.0756 0.0072,0.1018 l 1.531689,1.33067 -3.917073,4.5067 -4.18114,-4.17907 1.78232,-1.78336 c 0.0282,-0.0282 0.02821,-0.0736 0,-0.1018 l -1.724443,-1.72341 c -0.01411,-0.0141 -0.03227,-0.0212 -0.05064,-0.0212 -0.0023,0 -0.0049,-2.1e-4 -0.0072,0 z" />
    </g>
    <g
       aria-label="libKonogonka"
       id="text2788"
       style="font-size:10.5833px;line-height:1.25;font-family:Terminus;-inkscape-font-specification:'Terminus, Normal';stroke-width:0.264583;filter:url(#filter3747)">
      <path
         d="m 48.274372,147.82162 h -2.286 v -17.77999 h 2.286 z"
         style="font-size:25.4px;font-family:Play;-inkscape-font-specification:'Play, Normal';fill:#ffffff"
         id="path871" />
      <path
         d="m 54.522779,133.47062 h -2.286 v -2.38759 h 2.286 z m 0,14.351 h -2.286 v -12.2936 h 2.286 z"
         style="font-size:25.4px;font-family:Play;-inkscape-font-specification:'Play, Normal';fill:#ffffff"
         id="path873" />
      <path
         d="m 69.686586,138.75382 v 5.0546 q 0,1.1176 -0.3302,1.9304 -0.3302,0.8128 -0.8382,1.27 -0.4826,0.4318 -1.2954,0.6858 -0.8128,0.254 -1.524,0.3048 -0.7112,0.0762 -1.7272,0.0762 -1.3208,0 -2.159,-0.127 -0.8382,-0.127 -1.6764,-0.5334 -0.8382,-0.4064 -1.2446,-1.2954 -0.4064,-0.9144 -0.4064,-2.3114 v -13.76679 h 2.286 v 3.68299 q 0,0.4826 -0.0254,1.4732 0,0.9652 0,1.4478 0.1016,-0.5842 1.0414,-0.9652 0.9652,-0.4064 2.8194,-0.4064 5.08,0 5.08,3.4798 z m -2.3368,5.3848 v -4.826 q 0,-1.5748 -0.7366,-1.9812 -0.7366,-0.4318 -2.6162,-0.4318 -1.8034,0 -2.5146,0.4826 -0.7112,0.4826 -0.7112,1.9304 v 4.826 q 0,1.5494 0.6858,2.0066 0.7112,0.4318 2.5654,0.4318 1.8796,0 2.5908,-0.4318 0.7366,-0.4572 0.7366,-2.0066 z"
         style="font-size:25.4px;font-family:Play;-inkscape-font-specification:'Play, Normal';fill:#ffffff"
         id="path875" />
      <path
         d="m 86.933198,147.82162 h -3.2004 l -7.874,-8.763 7.366,-7.72159 h 2.9718 l -7.4168,7.61999 z m -11.1252,0 h -2.4638 v -16.48459 h 2.4638 z"
         style="font-size:25.4px;font-family:Play;-inkscape-font-specification:'Play, Normal';fill:#ffffff"
         id="path877" />
      <path
         d="m 99.53158,139.66822 v 4.2672 q 0,1.143 -0.2794,1.9304 -0.2794,0.7874 -0.7112,1.2192 -0.4318,0.4318 -1.2446,0.6604 -0.7874,0.2286 -1.524,0.2794 -0.7112,0.0508 -1.905,0.0508 -1.524,0 -2.3876,-0.1016 -0.8382,-0.1016 -1.7018,-0.4826 -0.8382,-0.4064 -1.2192,-1.27 -0.3556,-0.8636 -0.3556,-2.286 v -4.2672 q 0,-1.2192 0.2794,-2.0574 0.3048,-0.8382 0.7112,-1.2954 0.4318,-0.4572 1.2446,-0.6858 0.8128,-0.254 1.4986,-0.3048 0.7112,-0.0508 1.9304,-0.0508 1.2192,0 1.905,0.0508 0.7112,0.0508 1.524,0.3048 0.8128,0.2286 1.2192,0.6858 0.4318,0.4572 0.7112,1.2954 0.3048,0.8382 0.3048,2.0574 z m -2.3368,4.5974 v -4.9784 q 0,-1.7018 -0.6858,-2.1082 -0.6858,-0.4064 -2.6416,-0.4064 -1.9558,0 -2.6416,0.4064 -0.6858,0.4064 -0.6858,2.1082 v 4.9784 q 0,0.8128 0.1778,1.2954 0.1778,0.4826 0.6604,0.7112 0.4826,0.2032 0.9906,0.254 0.508,0.0508 1.4986,0.0508 0.9906,0 1.4986,-0.0508 0.508,-0.0508 0.9906,-0.254 0.4826,-0.2286 0.6604,-0.7112 0.1778,-0.4826 0.1778,-1.2954 z"
         style="font-size:25.4px;font-family:Play;-inkscape-font-specification:'Play, Normal';fill:#ffffff"
         id="path879" />
      <path
         d="m 113.6794,147.82162 h -2.286 v -8.89 q 0,-0.4572 -0.0762,-0.762 -0.0762,-0.3048 -0.3302,-0.6096 -0.2286,-0.3302 -0.8128,-0.4826 -0.5588,-0.1778 -1.4224,-0.1778 -2.0066,0 -2.6924,0.4318 -0.6858,0.4318 -0.6858,1.6002 v 8.89 h -2.286 v -12.2936 h 2.286 v 1.4986 q 0.3556,-1.7526 4.0386,-1.7526 2.4384,0 3.3528,0.889 0.9144,0.8636 0.9144,2.6416 z"
         style="font-size:25.4px;font-family:Play;-inkscape-font-specification:'Play, Normal';fill:#ffffff"
         id="path881" />
      <path
         d="m 128.513,139.66822 v 4.2672 q 0,1.143 -0.2794,1.9304 -0.2794,0.7874 -0.7112,1.2192 -0.4318,0.4318 -1.2446,0.6604 -0.7874,0.2286 -1.524,0.2794 -0.7112,0.0508 -1.905,0.0508 -1.524,0 -2.3876,-0.1016 -0.8382,-0.1016 -1.7018,-0.4826 -0.8382,-0.4064 -1.2192,-1.27 -0.3556,-0.8636 -0.3556,-2.286 v -4.2672 q 0,-1.2192 0.2794,-2.0574 0.3048,-0.8382 0.7112,-1.2954 0.4318,-0.4572 1.2446,-0.6858 0.8128,-0.254 1.4986,-0.3048 0.7112,-0.0508 1.9304,-0.0508 1.2192,0 1.905,0.0508 0.7112,0.0508 1.524,0.3048 0.8128,0.2286 1.2192,0.6858 0.4318,0.4572 0.7112,1.2954 0.3048,0.8382 0.3048,2.0574 z m -2.3368,4.5974 v -4.9784 q 0,-1.7018 -0.6858,-2.1082 -0.6858,-0.4064 -2.6416,-0.4064 -1.9558,0 -2.6416,0.4064 -0.6858,0.4064 -0.6858,2.1082 v 4.9784 q 0,0.8128 0.1778,1.2954 0.1778,0.4826 0.6604,0.7112 0.4826,0.2032 0.9906,0.254 0.508,0.0508 1.4986,0.0508 0.9906,0 1.4986,-0.0508 0.508,-0.0508 0.9906,-0.254 0.4826,-0.2286 0.6604,-0.7112 0.1778,-0.4826 0.1778,-1.2954 z"
         style="font-size:25.4px;font-family:Play;-inkscape-font-specification:'Play, Normal';fill:#ffffff"
         id="path883" />
      <path
         d="m 142.55921,135.52802 v 13.462 q 0,2.6162 -1.4732,3.5052 -1.4478,0.9144 -4.3688,0.9144 -2.6162,0 -4.2418,-0.2794 v -1.6256 q 2.921,0.3556 4.445,0.3556 1.7526,0 2.54,-0.5588 0.8128,-0.5588 0.8128,-1.8542 v -2.9464 q -0.0508,0.8636 -1.1938,1.2192 -1.1176,0.3556 -2.5654,0.3556 -2.8448,0 -3.8862,-0.8382 -1.016,-0.8382 -1.016,-2.8956 v -5.0038 q 0,-2.1844 1.1684,-3.1242 1.1938,-0.9398 3.8862,-0.9398 3.2004,0 3.7592,1.4478 v -1.1938 z m -2.286,8.9662 v -5.5626 q 0,-1.1938 -0.6604,-1.6256 -0.635,-0.4572 -2.667,-0.4572 -1.905,0 -2.4892,0.4318 -0.5842,0.4318 -0.5842,1.651 v 5.5626 q 0,1.27 0.6096,1.6764 0.635,0.381 2.5146,0.381 1.7272,0 2.4892,-0.4064 0.7874,-0.4318 0.7874,-1.651 z"
         style="font-size:25.4px;font-family:Play;-inkscape-font-specification:'Play, Normal';fill:#ffffff"
         id="path885" />
      <path
         d="m 157.39282,139.66822 v 4.2672 q 0,1.143 -0.2794,1.9304 -0.2794,0.7874 -0.7112,1.2192 -0.4318,0.4318 -1.2446,0.6604 -0.7874,0.2286 -1.524,0.2794 -0.7112,0.0508 -1.905,0.0508 -1.524,0 -2.3876,-0.1016 -0.8382,-0.1016 -1.7018,-0.4826 -0.8382,-0.4064 -1.2192,-1.27 -0.3556,-0.8636 -0.3556,-2.286 v -4.2672 q 0,-1.2192 0.2794,-2.0574 0.3048,-0.8382 0.7112,-1.2954 0.4318,-0.4572 1.2446,-0.6858 0.8128,-0.254 1.4986,-0.3048 0.7112,-0.0508 1.9304,-0.0508 1.2192,0 1.905,0.0508 0.7112,0.0508 1.524,0.3048 0.8128,0.2286 1.2192,0.6858 0.4318,0.4572 0.7112,1.2954 0.3048,0.8382 0.3048,2.0574 z m -2.3368,4.5974 v -4.9784 q 0,-1.7018 -0.6858,-2.1082 -0.6858,-0.4064 -2.6416,-0.4064 -1.9558,0 -2.6416,0.4064 -0.6858,0.4064 -0.6858,2.1082 v 4.9784 q 0,0.8128 0.1778,1.2954 0.1778,0.4826 0.6604,0.7112 0.4826,0.2032 0.9906,0.254 0.508,0.0508 1.4986,0.0508 0.9906,0 1.4986,-0.0508 0.508,-0.0508 0.9906,-0.254 0.4826,-0.2286 0.6604,-0.7112 0.1778,-0.4826 0.1778,-1.2954 z"
         style="font-size:25.4px;font-family:Play;-inkscape-font-specification:'Play, Normal';fill:#ffffff"
         id="path887" />
      <path
         d="m 171.54064,147.82162 h -2.286 v -8.89 q 0,-0.4572 -0.0762,-0.762 -0.0762,-0.3048 -0.3302,-0.6096 -0.2286,-0.3302 -0.8128,-0.4826 -0.5588,-0.1778 -1.4224,-0.1778 -2.0066,0 -2.6924,0.4318 -0.6858,0.4318 -0.6858,1.6002 v 8.89 h -2.286 v -12.2936 h 2.286 v 1.4986 q 0.3556,-1.7526 4.0386,-1.7526 2.4384,0 3.3528,0.889 0.9144,0.8636 0.9144,2.6416 z"
         style="font-size:25.4px;font-family:Play;-inkscape-font-specification:'Play, Normal';fill:#ffffff"
         id="path889" />
      <path
         d="m 186.52665,147.82162 h -2.8448 l -5.6134,-6.731 5.1816,-5.5626 h 2.794 l -5.334,5.5626 z m -8.7376,0 h -2.286 v -17.77999 h 2.286 z"
         style="font-size:25.4px;font-family:Play;-inkscape-font-specification:'Play, Normal';fill:#ffffff"
         id="path891" />
      <path
         d="m 198.26144,147.82162 h -2.2098 v -1.1684 q -0.2794,1.4224 -3.7084,1.4224 -2.54,0 -3.5306,-0.762 -0.9652,-0.7874 -0.9652,-3.1496 0,-2.0574 0.9144,-2.8194 0.9144,-0.7874 3.5306,-0.7874 h 3.683 v -1.9558 q 0,-1.016 -0.635,-1.3716 -0.6096,-0.3556 -2.3368,-0.3556 -1.8796,0 -4.2164,0.3048 v -1.6764 q 2.5146,-0.2286 4.5466,-0.2286 3.0988,0 4.0132,0.762 0.9144,0.7366 0.9144,3.0988 z m -2.286,-2.4892 v -3.3528 h -3.5306 q -1.5748,0 -1.9812,0.4064 -0.381,0.4064 -0.381,1.8542 0,1.2954 0.4064,1.8288 0.4318,0.508 1.778,0.508 h 0.4572 q 0.6604,0 1.0922,-0.0254 0.4572,-0.0254 1.016,-0.127 0.5588,-0.127 0.8382,-0.381 0.3048,-0.2794 0.3048,-0.7112 z"
         style="font-size:25.4px;font-family:Play;-inkscape-font-specification:'Play, Normal';fill:#ffffff"
         id="path893" />
    </g>
    <g
       id="g939">
      <path
         id="rect2890"
         style="fill:#00ddff;fill-opacity:1;stroke-width:1.02576"
         d="M 21.024968,155.29019 H 80.12021 l 0.03058,0.01 -5.965349,1.41604 -59.110532,4e-5 c -0.01693,0 -0.04392,-0.007 -0.03056,-0.01 l 5.950068,-1.40725 c 0.01336,-0.003 0.01363,-0.01 0.03056,-0.01 z"
         sodipodi:nodetypes="scccssss" />
      <path
         id="rect2890-9"
         style="fill:#0038a5;fill-opacity:1;stroke-width:1.02576"
         d="m 80.13148,155.29019 h 59.09523 l 0.0306,0.01 -5.96535,1.41604 -59.110523,4e-5 c -0.01693,0 -0.04392,-0.007 -0.03056,-0.01 l 5.950062,-1.40725 c 0.01333,-0.003 0.01357,-0.01 0.03058,-0.01 z"
         sodipodi:nodetypes="scccssss" />
      <path
         id="rect2890-9-6"
         style="fill:#f00001;fill-opacity:1;stroke-width:1.02576"
         d="m 139.23792,155.29019 h 59.09526 l 0.0306,0.01 -5.96535,1.41604 -59.11057,4e-5 c -0.0169,0 -0.0439,-0.007 -0.0306,-0.01 l 5.95007,-1.40725 c 0.0133,-0.003 0.0136,-0.01 0.0306,-0.01 z"
         sodipodi:nodetypes="scccssss" />
    </g>
  </g>
</svg>
